PathFileType	4	(X/Y/Z)	C:/Users/dbak576/Desktop/Duncan Bakke Modelling Files/H25s1/Static_H25s1.trc	
DataRate	CameraRate	NumFrames	NumMarkers	Units	OrigDataRate	OrigDataStartFrame	OrigNumFrames	
200.00	200.00	5	62	mm	200.00	260	296	
Frame#	Time	LFHD			RFHD			LBHD			RBHD			C7			T10			CLAV			STRN			RBack			LASI			RASI			LPSI			RPSI			RACR1			RUA1			RElbow			RElbowM			RFA1			RWRR			RWRU			RCAR			LACR1			LUA1			LElbow			LElbowM			LFA1			LWRR			LWRU			LCAR			RTH1			RTH3			RTH2			RTH4			RLFC			RMFC			RTB1			RTB3			RTB2			RTB4			RLMAL			RMMAL			RCAL			RMT1			RMT5			RToe			LTH1			LTH3			LTH2			LTH4			LLFC			LMFC			LTB1			LTB3			LTB2			LTB4			LLMAL			LMMAL			LCAL			LMT1			LMT5			LToe			*61			
		X1	Y1	Z1	X2	Y2	Z2	X3	Y3	Z3	X4	Y4	Z4	X5	Y5	Z5	X6	Y6	Z6	X7	Y7	Z7	X8	Y8	Z8	X9	Y9	Z9	X10	Y10	Z10	X11	Y11	Z11	X12	Y12	Z12	X13	Y13	Z13	X14	Y14	Z14	X15	Y15	Z15	X16	Y16	Z16	X17	Y17	Z17	X18	Y18	Z18	X19	Y19	Z19	X20	Y20	Z20	X21	Y21	Z21	X22	Y22	Z22	X23	Y23	Z23	X24	Y24	Z24	X25	Y25	Z25	X26	Y26	Z26	X27	Y27	Z27	X28	Y28	Z28	X29	Y29	Z29	X30	Y30	Z30	X31	Y31	Z31	X32	Y32	Z32	X33	Y33	Z33	X34	Y34	Z34	X35	Y35	Z35	X36	Y36	Z36	X37	Y37	Z37	X38	Y38	Z38	X39	Y39	Z39	X40	Y40	Z40	X41	Y41	Z41	X42	Y42	Z42	X43	Y43	Z43	X44	Y44	Z44	X45	Y45	Z45	X46	Y46	Z46	X47	Y47	Z47	X48	Y48	Z48	X49	Y49	Z49	X50	Y50	Z50	X51	Y51	Z51	X52	Y52	Z52	X53	Y53	Z53	X54	Y54	Z54	X55	Y55	Z55	X56	Y56	Z56	X57	Y57	Z57	X58	Y58	Z58	X59	Y59	Z59	X60	Y60	Z60	X61	Y61	Z61	X62	Y62	Z62	

260	1.295	-63.00895	-263.59946	1732.94702	41.92707	-269.61307	1726.67444	-92.91343	-430.66754	1724.82922	48.56840	-441.83295	1720.70984	-21.15998	-510.87991	1572.55750	-31.20466	-509.48035	1210.62231	-35.51297	-330.50992	1505.11267	-15.20654	-245.97552	1340.33521	86.94665	-574.86542	1470.21741	-174.88667	-294.04602	1048.79907	144.57886	-323.01828	1050.46594	-87.85516	-522.20361	1097.28516	21.29814	-529.37146	1086.07800	134.28957	-428.11340	1569.67786	283.94992	-420.54575	1518.74304	430.86139	-391.24924	1454.55774	401.62161	-317.35263	1408.76526	564.88477	-335.22324	1500.75940	685.47943	-258.56180	1512.53003	697.70087	-279.40369	1430.24707	747.21625	-275.62540	1477.43958	-185.30415	-436.89639	1559.61768	-333.82199	-423.43335	1522.58459	-490.46857	-388.87247	1474.56262	-467.00687	-327.08026	1413.76147	-624.40613	-332.88049	1514.41040	-734.45068	-256.91818	1519.97217	-741.23132	-297.87231	1437.86951	-791.33484	-285.29807	1495.21497	192.14507	-459.45047	834.58618	196.56493	-462.74515	662.20074	209.06851	-403.52570	747.08527	194.77827	-463.66193	746.13690	200.42996	-464.41675	523.30298	51.71156	-462.76932	502.02756	133.65427	-422.01288	367.27063	138.42935	-451.23834	196.68114	197.52803	-440.76907	284.86435	135.42976	-437.00482	281.55838	187.93748	-515.94397	80.64326	96.39908	-482.79980	99.40189	150.05710	-575.96265	43.96198	135.97829	-354.31543	52.02922	231.12381	-397.02719	32.66267	149.34605	-300.81702	33.67241	-243.84535	-391.20969	833.51245	-224.50645	-410.99921	661.03479	-219.51830	-344.15250	742.14496	-238.65549	-400.52963	748.13348	-209.45901	-458.49048	516.66931	-67.37227	-451.87051	505.00177	-115.25025	-431.01288	361.68500	-120.90271	-452.65164	191.77017	-177.84998	-425.67834	275.99326	-117.19526	-444.17157	277.28568	-186.33426	-504.83865	73.02159	-87.33569	-481.56335	91.20287	-149.70404	-569.67267	44.93868	-133.59839	-342.14987	45.01864	-224.29594	-390.13541	28.90296	-153.70049	-285.37326	27.09936	-222.35742	-460.53156	917.36017 
261	1.300	-62.97941	-263.57077	1732.89453	41.92472	-269.61230	1726.64941	-92.90446	-430.58902	1724.84167	48.57170	-441.77060	1720.69421	-21.13600	-510.79977	1572.54712	-31.20625	-509.47583	1210.62207	-35.50936	-330.44962	1505.10583	-15.19707	-245.93867	1340.33643	86.96236	-574.81842	1470.23804	-174.91466	-293.96014	1048.76733	144.59052	-322.96088	1050.47925	-87.87036	-522.20288	1097.29602	21.29167	-529.32635	1086.07471	134.35405	-428.02652	1569.66846	283.98694	-420.41824	1518.72742	430.87692	-391.14551	1454.51147	401.63452	-317.24960	1408.67163	564.90796	-335.17126	1500.75427	685.45697	-258.50430	1512.49548	697.73041	-279.33926	1430.20154	747.23999	-275.54950	1477.44446	-185.33688	-436.82028	1559.69263	-333.79501	-423.37961	1522.57654	-490.49036	-388.84467	1474.60486	-466.99979	-327.03262	1413.73364	-624.38916	-332.82755	1514.40222	-734.36316	-256.85699	1520.00537	-741.22919	-297.87054	1437.95435	-791.32043	-285.22876	1495.31860	192.18202	-459.43753	834.59216	196.56993	-462.77597	662.18768	209.07718	-403.51358	747.12927	194.67099	-463.08316	746.17749	200.46091	-464.40729	523.30841	51.75291	-462.74207	502.03934	133.61885	-422.03381	367.29648	138.42168	-451.22821	196.67703	197.54962	-440.76801	284.84747	135.42094	-436.97845	281.55527	187.90518	-515.90363	80.64195	96.37514	-482.80563	99.40190	150.05707	-575.96271	43.96209	135.96144	-354.31900	52.02830	231.10138	-397.02960	32.66534	149.30905	-300.80759	33.67694	-243.82294	-391.16345	833.53094	-224.51550	-410.93018	661.03925	-219.57916	-344.08688	742.13812	-238.67479	-400.50845	748.08618	-209.45331	-458.45953	516.67511	-67.41500	-451.87903	504.99518	-115.23206	-431.01089	361.71967	-120.92685	-452.65256	191.78508	-177.86548	-425.68649	275.96735	-117.19553	-444.22488	277.27167	-186.29903	-504.68362	72.93976	-87.36465	-481.55081	91.23279	-149.67995	-569.63849	44.88702	-133.60394	-342.17581	45.02020	-224.40253	-390.18835	28.89157	-153.69958	-285.36362	27.13187	-222.32652	-460.43021	917.34369 
262	1.305	-62.95122	-263.47891	1732.86389	41.91457	-269.53296	1726.64355	-92.83755	-430.49124	1724.81409	48.60051	-441.65698	1720.67419	-21.11548	-510.74966	1572.52039	-31.20425	-509.41678	1210.60608	-35.48366	-330.36569	1505.06982	-15.21392	-245.91924	1340.26147	86.98914	-574.73206	1470.20764	-174.88824	-293.90698	1048.74170	144.57582	-322.95535	1050.46301	-87.91119	-522.19452	1097.32483	21.30958	-529.27631	1086.07312	134.36508	-427.88077	1569.60522	284.02161	-420.37479	1518.65967	430.90451	-391.11243	1454.50903	401.64276	-317.17474	1408.60754	564.92834	-335.07990	1500.69580	685.47974	-258.43839	1512.42615	697.72406	-279.23447	1430.15942	747.26428	-275.41211	1477.36023	-185.42371	-436.82434	1559.80029	-333.74326	-423.34720	1522.60205	-490.49240	-388.77768	1474.63037	-467.02744	-326.94901	1413.79211	-624.37799	-332.78284	1514.48474	-734.36304	-256.77927	1520.05347	-741.17914	-297.79144	1437.97290	-791.29852	-285.16907	1495.40137	192.20293	-459.37643	834.57874	196.52475	-462.74835	662.16766	209.08353	-403.46228	747.07166	194.60358	-462.93637	746.21783	200.46735	-464.40759	523.31036	51.74117	-462.74432	502.01367	133.65410	-422.01398	367.27182	138.42044	-451.22733	196.67772	197.55542	-440.76556	284.86688	135.42897	-436.96613	281.55441	187.93611	-515.88611	80.65335	96.39015	-482.79797	99.42503	150.05707	-575.96271	43.96209	135.96727	-354.30264	52.03006	231.17224	-397.03479	32.65425	149.33438	-300.81671	33.67835	-243.81042	-391.07477	833.52478	-224.49677	-410.92239	661.04547	-219.56413	-344.06567	742.11029	-238.65587	-400.40530	748.19843	-209.44928	-458.45267	516.66443	-67.36028	-451.86694	505.00830	-115.30872	-430.93378	361.61398	-120.92361	-452.58200	191.77411	-177.88042	-425.63229	276.00684	-117.19070	-444.23425	277.26517	-186.26555	-504.65216	72.89581	-87.34663	-481.56866	91.22816	-149.70453	-569.65930	44.92929	-133.59879	-342.18561	44.99609	-224.41695	-390.20868	28.94560	-153.72293	-285.36960	27.08791	-222.28177	-460.30878	917.32147 
263	1.310	-62.93524	-263.42130	1732.80908	41.93861	-269.46970	1726.61536	-92.81571	-430.40353	1724.80286	48.66542	-441.55432	1720.68323	-21.08496	-510.69717	1572.51282	-31.21437	-509.41739	1210.62000	-35.47186	-330.33481	1505.08948	-15.21208	-245.86424	1340.24304	87.00829	-574.72089	1470.18140	-174.88928	-293.86496	1048.72571	144.61122	-322.95419	1050.48450	-87.92175	-522.14557	1097.32996	21.27299	-529.21307	1086.05774	134.39027	-427.77631	1569.58716	284.03894	-420.29910	1518.64893	430.95999	-391.00504	1454.47656	401.65436	-317.09741	1408.58899	564.95038	-335.03632	1500.67517	685.50311	-258.34866	1512.40796	697.75256	-279.13724	1430.14600	747.32819	-275.37280	1477.36780	-185.39581	-436.51428	1559.79053	-333.73035	-423.31454	1522.62720	-490.46295	-388.74362	1474.62622	-466.97253	-326.89249	1413.78906	-624.35101	-332.73346	1514.52295	-734.29559	-256.70462	1520.08557	-741.18878	-297.72061	1438.01355	-791.27820	-285.06564	1495.48071	192.17577	-459.41098	834.58533	196.52930	-462.72870	662.21649	209.11278	-403.42010	747.07251	194.64624	-462.96472	746.15961	200.46602	-464.40817	523.31000	51.71409	-462.76868	502.03955	133.66309	-422.00961	367.26685	138.39281	-451.21823	196.67934	197.57669	-440.75751	284.87964	135.42517	-436.97375	281.55966	187.97955	-515.90723	80.66308	96.41383	-482.80698	99.41590	150.11044	-575.97687	43.93111	135.94733	-354.32498	52.01677	231.13208	-397.06061	32.61848	149.31279	-300.80008	33.67630	-243.78639	-391.02075	833.52820	-224.49942	-410.92215	661.03424	-219.47816	-344.04135	742.11841	-238.64571	-400.45837	748.10461	-209.44643	-458.44672	516.65216	-67.34867	-451.86417	505.02313	-115.25922	-430.97842	361.70071	-120.97816	-452.56531	191.69731	-177.84273	-425.65396	275.96738	-117.19114	-444.23578	277.26865	-186.24698	-504.64517	72.88064	-87.34306	-481.57303	91.22707	-149.64032	-569.60553	44.85878	-133.61589	-342.15054	45.03618	-224.30728	-390.14764	28.91996	-153.69090	-285.38367	27.11365	-222.20543	-460.15268	917.31396 
264	1.315	-62.93844	-263.33997	1732.78662	41.97132	-269.45654	1726.59656	-92.78843	-430.35416	1724.79236	48.76278	-441.46152	1720.68042	-21.06798	-510.67053	1572.53320	-31.16621	-509.36673	1210.61572	-35.48714	-330.28482	1505.08325	-15.21146	-245.86104	1340.24451	87.04269	-574.67700	1470.18481	-174.90466	-293.77274	1048.71741	144.58501	-322.92340	1050.42090	-87.90817	-522.10748	1097.32458	21.26961	-529.20966	1086.05664	134.41646	-427.68158	1569.56763	284.01636	-420.22098	1518.63196	430.92484	-390.95673	1454.46362	401.61179	-317.06055	1408.54602	564.93445	-334.93301	1500.67725	685.51379	-258.24603	1512.35034	697.73108	-279.06024	1430.10498	747.31409	-275.32309	1477.36731	-185.32114	-436.41669	1559.76074	-333.68063	-423.24594	1522.59900	-490.46765	-388.67932	1474.66187	-466.95905	-326.81744	1413.81641	-624.33508	-332.71942	1514.54187	-734.23035	-256.59665	1520.13110	-741.39429	-297.78784	1438.17627	-791.22180	-284.99814	1495.51929	192.19917	-459.33170	834.57568	196.54742	-462.75745	662.15802	209.10394	-403.42053	747.10254	194.60648	-462.98389	746.15692	200.44637	-464.38379	523.29846	51.73912	-462.74551	502.01437	133.66168	-421.95935	367.27307	138.39374	-451.20117	196.70088	197.56548	-440.75443	284.86768	135.42690	-436.97070	281.55603	187.93370	-515.96796	80.66135	96.37450	-482.80945	99.40346	150.12408	-575.98499	43.92678	135.93161	-354.32382	52.04771	231.17123	-397.05365	32.64877	149.30164	-300.81100	33.67876	-243.78819	-391.02255	833.52985	-224.46313	-410.86819	661.02679	-219.54228	-343.99222	742.09473	-238.65201	-400.44498	748.03271	-209.49548	-458.40036	516.65460	-67.37099	-451.79755	504.96698	-115.26696	-430.89255	361.62762	-120.98145	-452.56433	191.71765	-177.82764	-425.62350	275.96707	-117.19103	-444.22913	277.26688	-186.26694	-504.63324	72.88411	-87.33139	-481.54654	91.21391	-149.65819	-569.60449	44.88682	-133.60356	-342.15613	45.02005	-224.40245	-390.21808	28.92587	-153.72528	-285.38025	27.11286	-222.14690	-460.06924	917.30640 
